HIERARCHY
ROOT Hips
{
  OFFSET 0 0 0
  CHANNELS 6 Xposition Yposition Zposition Zrotation Yrotation Xrotation
  JOINT LeftThigh
  {
    OFFSET 8.409438 0 -5.917753
    CHANNELS 3 Zrotation Yrotation Xrotation
    JOINT LeftLeg
    {
      OFFSET 0 0 -42.358652
      CHANNELS 3 Zrotation Yrotation Xrotation
      JOINT LeftFoot
      {
        OFFSET 0 0 -39.357303
        CHANNELS 3 Zrotation Yrotation Xrotation
      }
    }
  }
  JOINT RightThigh
  {
    OFFSET -8.409438 0 -5.917753
    CHANNELS 3 Zrotation Yrotation Xrotation
    JOINT RightLeg
    {
      OFFSET 0 0 -42.358652
      CHANNELS 3 Zrotation Yrotation Xrotation
      JOINT RightFoot
      {
        OFFSET 0 0 -39.357303
        CHANNELS 3 Zrotation Yrotation Xrotation
      }
    }
  }
  JOINT SpineLow
  {
    OFFSET 0 0 4.719101
    CHANNELS 3 Zrotation Yrotation Xrotation
    JOINT SpineMid
    {
      OFFSET 0 0 12.899191
      CHANNELS 3 Zrotation Yrotation Xrotation
      JOINT Chest
      {
        OFFSET 0 0 12.899191
        CHANNELS 3 Zrotation Yrotation Xrotation
        JOINT LeftShoulder
        {
          OFFSET 7.550562 1.41573 9.438202
          CHANNELS 3 Zrotation Yrotation Xrotation
          JOINT LeftArm
          {
            OFFSET 9.155056 0 4.247191
            CHANNELS 3 Zrotation Yrotation Xrotation
            JOINT LeftForearm
            {
              OFFSET 0 0 25.771955
              CHANNELS 3 Zrotation Yrotation Xrotation
              JOINT LeftHand
              {
                OFFSET 0 0 25.197169
                CHANNELS 3 Zrotation Yrotation Xrotation
              }
            }
          }
        }
        JOINT RightShoulder
        {
          OFFSET -7.550562 1.41573 9.438202
          CHANNELS 3 Zrotation Yrotation Xrotation
          JOINT RightArm
          {
            OFFSET -9.155056 0 4.247191
            CHANNELS 3 Zrotation Yrotation Xrotation
            JOINT RightForearm
            {
              OFFSET 0 0 -25.771955
              CHANNELS 3 Zrotation Yrotation Xrotation
              JOINT RightHand
              {
                OFFSET 0 0 -25.197169
                CHANNELS 3 Zrotation Yrotation Xrotation
              }
            }
          }
        }
        JOINT Neck
        {
          OFFSET 0 0 15.101124
          CHANNELS 3 Zrotation Yrotation Xrotation
          JOINT Head
          {
            OFFSET 0 0 11.325843
            CHANNELS 3 Zrotation Yrotation Xrotation
            End Site
            {
              OFFSET 0 0 14.157303
            }
          }
        }
      }
    }
  }
}
MOTION
Frames: 5
Frame Time: 0.01
0.0  101.685394  0.0  -4.094523  41.072446  -100.99826  20.160386  -23.055505  -7.43296  -21.932072  14.569721  25.056703  3.132536  2.517535  1.916744  -23.41669  15.819402  3.804503  -6.730702  3.919247  19.82411  -1.188971  3.638858  -2.52215  -4.227746  -0.239967  0.735552  -11.562421  -0.525255  2.045402  -11.562421  -0.525255  2.045402  -11.188479  29.408645  2.713702  101.065602  59.750074  -173.946354  -31.095157  13.384447  95.329464  70.23465  10.467411  -19.379352  18.900167  -4.362242  20.117569  23.342978  67.915436  -42.395085  -20.294685  -18.982347  -112.015336  71.27691  -11.531394  3.336105  1.483924  -2.279885  -0.256383  1.111839  -1.710548  -0.186725  
0.0  101.685394  0.0  -3.725507  44.571507  -100.886221  19.092341  -22.676957  -6.652808  -23.283911  14.520204  23.179037  2.596105  2.487295  1.58999  -23.16905  15.991991  5.105436  -8.343796  4.051189  18.731364  -2.229623  3.461619  -2.512892  -4.136265  -0.149659  0.76582  -11.309566  -0.276961  2.111816  -11.309566  -0.276961  2.111816  -11.026609  28.827246  1.78057  106.14486  55.773331  -169.948347  -26.389574  13.493095  97.133528  70.646589  10.920042  -20.557362  18.569356  -2.748974  18.693879  16.144579  68.190378  -47.336555  -20.87932  -16.530138  -112.310938  72.391693  -12.973682  1.268608  -0.153893  -2.273504  -0.719505  -0.118083  -1.70495  -0.540131  
0.0  101.685394  0.0  -3.125995  47.528015  -100.554857  17.740003  -22.086824  -5.723626  -23.880585  14.217492  21.49594  0.595854  2.469024  0.828142  -23.406558  16.391045  6.106406  -9.425014  4.013938  17.630032  -2.967426  3.34627  -2.464204  -3.309022  -0.240411  0.923075  -9.052724  -0.529498  2.550608  -9.052724  -0.529498  2.550608  -14.905425  28.452568  0.40147  110.546033  53.108384  -167.013235  -22.111803  14.492341  98.733488  70.953851  9.526299  -20.014821  13.869133  -0.280476  16.202831  10.118629  69.81103  -51.150521  -23.302593  -13.810392  -111.673325  73.847358  -12.93807  -0.959394  -4.018459  -1.662631  -1.766497  -3.01847  -1.235434  -1.335783  
0.0  101.685394  0.0  -2.349913  49.731408  -99.948712  16.352947  -21.190975  -4.794116  -23.665617  13.646919  20.129588  0.029837  2.156435  0.720264  -24.175467  16.987362  6.649508  -10.165166  3.89015  16.577092  -3.67591  3.143851  -2.444576  -2.635954  -0.151373  0.974843  -7.209922  -0.306973  2.677502  -7.209922  -0.306973  2.677502  -15.948732  27.084879  0.780364  113.863582  50.764912  -165.691686  -18.711668  16.14138  100.563344  72.069648  6.904893  -17.061705  10.702068  0.792116  13.918573  2.855214  72.420999  -55.696024  -25.98336  -11.055091  -110.641744  75.137474  -11.33054  -0.988331  -6.681316  -1.424413  -2.120501  -5.015742  -1.04529  -1.606097  
0.0  101.685394  0.0  -1.526965  50.983552  -99.232492  15.462535  -20.130146  -3.783071  -23.114351  12.785533  18.952865  -0.694178  1.669539  0.643623  -25.58999  17.811701  6.683944  -10.515659  3.705836  15.647443  -3.761518  3.10315  -2.425511  -1.840562  -0.230679  1.316246  -5.041933  -0.529793  3.613052  -5.041933  -0.529793  3.613052  -17.6737  25.770055  -0.948075  114.436353  48.611214  -167.087572  -17.547488  17.361071  102.235496  73.240507  3.345794  -11.919673  7.468733  2.592513  9.32862  -6.326561  75.623309  -61.555961  -28.270177  -7.855931  -109.396254  76.48354  -8.950205  2.100692  -9.270283  -0.817872  -3.541643  -6.95761  -0.55985  -2.669323  
